<svg width="15" height="20" viewBox="0 0 15 20" fill="none" xmlns="http://www.w3.org/2000/svg">
<g clip-path="url(#clip0_173_11979)">
<path d="M6.51225 13.5466C6.7141 13.756 6.98736 13.8733 7.27253 13.8733C7.55769 13.8733 7.83096 13.756 8.0328 13.5466L11.3561 10.0984C11.7762 9.66257 11.7762 8.95657 11.3561 8.52073C10.936 8.08488 10.2556 8.08488 9.83555 8.52073L8.34773 10.0645V3.22087C8.34773 2.60492 7.86617 2.10527 7.27253 2.10527C6.67888 2.10527 6.19733 2.60492 6.19733 3.22087V10.065L4.7095 8.52124C4.28944 8.0854 3.60901 8.0854 3.18895 8.52124C2.76889 8.95709 2.76889 9.66309 3.18895 10.0989L6.51225 13.5466Z" fill="#969A9C"/>
<path d="M1.0752 17.8947H13.4703C14.0639 17.8947 14.5455 17.3951 14.5455 16.7791V12.7577C14.5455 12.1418 14.0639 11.6421 13.4703 11.6421C12.8766 11.6421 12.3951 12.1418 12.3951 12.7577V15.6635H2.1504V12.7577C2.1504 12.1418 1.66884 11.6421 1.0752 11.6421C0.481559 11.6421 0 12.1418 0 12.7583V16.7797C0 17.3956 0.481559 17.8953 1.0752 17.8953V17.8947Z" fill="#969A9C"/>
</g>
<defs>
<clipPath id="clip0_173_11979">
<rect width="14.5455" height="20" fill="white"/>
</clipPath>
</defs>
</svg>
