<svg width="55" height="17" viewBox="0 0 55 17" fill="none" xmlns="http://www.w3.org/2000/svg">
<path d="M0.563031 14L3.55103 5.24H6.33503L9.40703 14H7.65503L5.05103 6.404L5.66303 6.668H4.16303L4.78703 6.404L2.26703 14H0.563031ZM2.65103 11.672L3.19103 10.232H6.74303L7.27103 11.672H2.65103ZM10.5763 16.4V7.484H11.8963V10.292L11.6923 10.28C11.7243 9.616 11.8603 9.06 12.1003 8.612C12.3483 8.164 12.6763 7.832 13.0843 7.616C13.4923 7.392 13.9483 7.28 14.4523 7.28C14.9163 7.28 15.3323 7.364 15.7003 7.532C16.0763 7.7 16.3963 7.936 16.6603 8.24C16.9323 8.544 17.1403 8.9 17.2843 9.308C17.4283 9.708 17.5003 10.14 17.5003 10.604V10.856C17.5003 11.328 17.4283 11.768 17.2843 12.176C17.1483 12.576 16.9443 12.932 16.6723 13.244C16.4083 13.548 16.0883 13.788 15.7123 13.964C15.3363 14.132 14.9163 14.216 14.4523 14.216C13.9643 14.216 13.5163 14.116 13.1083 13.916C12.7083 13.708 12.3843 13.392 12.1363 12.968C11.8883 12.536 11.7483 11.98 11.7163 11.3L12.2443 12.104V16.4H10.5763ZM14.0323 12.812C14.3923 12.812 14.7043 12.724 14.9683 12.548C15.2403 12.372 15.4523 12.128 15.6043 11.816C15.7563 11.496 15.8323 11.136 15.8323 10.736C15.8323 10.32 15.7563 9.96 15.6043 9.656C15.4523 9.352 15.2403 9.116 14.9683 8.948C14.7043 8.772 14.3923 8.684 14.0323 8.684C13.7043 8.684 13.4003 8.756 13.1203 8.9C12.8483 9.044 12.6243 9.256 12.4483 9.536C12.2803 9.816 12.1963 10.152 12.1963 10.544V11.024C12.1963 11.4 12.2843 11.72 12.4603 11.984C12.6363 12.248 12.8643 12.452 13.1443 12.596C13.4243 12.74 13.7203 12.812 14.0323 12.812ZM18.9669 16.4V7.484H20.2869V10.292L20.0829 10.28C20.1149 9.616 20.2509 9.06 20.4909 8.612C20.7389 8.164 21.0669 7.832 21.4749 7.616C21.8829 7.392 22.3389 7.28 22.8429 7.28C23.3069 7.28 23.7229 7.364 24.0909 7.532C24.4669 7.7 24.7869 7.936 25.0509 8.24C25.3229 8.544 25.5309 8.9 25.6749 9.308C25.8189 9.708 25.8909 10.14 25.8909 10.604V10.856C25.8909 11.328 25.8189 11.768 25.6749 12.176C25.5389 12.576 25.3349 12.932 25.0629 13.244C24.7989 13.548 24.4789 13.788 24.1029 13.964C23.7269 14.132 23.3069 14.216 22.8429 14.216C22.3549 14.216 21.9069 14.116 21.4989 13.916C21.0989 13.708 20.7749 13.392 20.5269 12.968C20.2789 12.536 20.1389 11.98 20.1069 11.3L20.6349 12.104V16.4H18.9669ZM22.4229 12.812C22.7829 12.812 23.0949 12.724 23.3589 12.548C23.6309 12.372 23.8429 12.128 23.9949 11.816C24.1469 11.496 24.2229 11.136 24.2229 10.736C24.2229 10.32 24.1469 9.96 23.9949 9.656C23.8429 9.352 23.6309 9.116 23.3589 8.948C23.0949 8.772 22.7829 8.684 22.4229 8.684C22.0949 8.684 21.7909 8.756 21.5109 8.9C21.2389 9.044 21.0149 9.256 20.8389 9.536C20.6709 9.816 20.5869 10.152 20.5869 10.544V11.024C20.5869 11.4 20.6749 11.72 20.8509 11.984C21.0269 12.248 21.2549 12.452 21.5349 12.596C21.8149 12.74 22.1109 12.812 22.4229 12.812ZM27.4415 14V5.24H29.1095V14H27.4415ZM26.6255 6.488V5.24H29.1095V6.488H26.6255ZM30.8218 16.568V15.14H32.0458C32.2778 15.14 32.4698 15.108 32.6218 15.044C32.7818 14.988 32.9138 14.892 33.0178 14.756C33.1218 14.628 33.2018 14.448 33.2578 14.216L35.0098 7.484H36.6058L34.6738 14.576C34.5458 15.064 34.3658 15.452 34.1338 15.74C33.9018 16.036 33.6018 16.248 33.2338 16.376C32.8738 16.504 32.4258 16.568 31.8898 16.568H30.8218ZM32.8498 13.856V12.536H34.2418V13.856H32.8498ZM32.2858 13.856L30.1738 7.484H31.8538L33.8578 13.856H32.2858Z" fill="url(#paint0_linear_214_39906)"/>
<path d="M53.4131 3.75H42.3477C42.0104 3.75 41.734 4.01838 41.734 4.34705C41.734 4.67573 42.0104 4.94605 42.3477 4.94605H42.4106L46.7954 11.0041C46.8523 11.6673 46.897 12.2624 46.9376 12.7914L46.9864 13.3826C47.0067 13.6432 47.027 13.8883 47.0473 14.1216C47.0534 14.1936 47.1164 14.25 47.1936 14.25H48.5692C48.6444 14.25 48.7094 14.1936 48.7155 14.1216C48.7358 13.8766 48.7582 13.616 48.7805 13.3418L48.8252 12.7914C48.8658 12.2624 48.9105 11.6692 48.9674 11.0041L53.3522 4.94605H53.4152C53.7545 4.94605 54.0288 4.67767 54.0288 4.34705C54.0288 4.01644 53.7524 3.75 53.4152 3.75H53.4131ZM48.5326 12.77L48.4879 13.3204C48.4696 13.5479 48.4513 13.7638 48.4351 13.9719H47.3277C47.3115 13.7774 47.2952 13.5752 47.2769 13.3612L47.2282 12.77C47.1916 12.2741 47.1489 11.7198 47.0961 11.1033H48.6647C48.6139 11.7198 48.5712 12.2741 48.5326 12.7681V12.77ZM48.7399 10.8252H47.0189L42.7662 4.94605H52.9966L48.7419 10.8252H48.7399ZM53.4131 4.666H42.3477C42.1689 4.666 42.0246 4.52209 42.0246 4.34705C42.0246 4.17202 42.1689 4.02811 42.3477 4.02811H53.4131C53.5899 4.02811 53.7362 4.17202 53.7362 4.34705C53.7362 4.52209 53.5919 4.666 53.4131 4.666Z" fill="url(#paint1_linear_214_39906)" stroke="url(#paint2_linear_214_39906)" stroke-width="0.5"/>
<defs>
<linearGradient id="paint0_linear_214_39906" x1="-17.0124" y1="7.34543" x2="29.8254" y2="7.34543" gradientUnits="userSpaceOnUse">
<stop stop-color="#FF57C1"/>
<stop offset="1" stop-color="#BC30E3"/>
</linearGradient>
<linearGradient id="paint1_linear_214_39906" x1="41.734" y1="9.00062" x2="51.6137" y2="9.00062" gradientUnits="userSpaceOnUse">
<stop stop-color="#FF57C1"/>
<stop offset="1" stop-color="#BC30E3"/>
</linearGradient>
<linearGradient id="paint2_linear_214_39906" x1="-58.86" y1="9.00062" x2="108.243" y2="9.00062" gradientUnits="userSpaceOnUse">
<stop stop-color="#FF57C1"/>
<stop offset="1" stop-color="#BC30E3"/>
</linearGradient>
</defs>
</svg>
