<svg width="14" height="17" viewBox="0 0 14 17" fill="none" xmlns="http://www.w3.org/2000/svg">
<path d="M11.4697 3.82322C11.7347 5.86613 9.79623 6.80003 9.79623 6.80003C9.87953 -0.0874997 4.32159 5.382e-05 4.32159 5.382e-05C5.46498 0.846403 6.7901 3.91077 3.44322 5.86613C3.39779 5.89531 3.34478 5.9245 3.29935 5.95368C-1.84213 9.06912 0.580955 16.803 6.6538 17C6.72952 17 6.80524 17 6.88097 17C10.5307 17 13.4384 14.1472 13.499 10.6232C13.552 7.48587 11.4697 3.81592 11.4697 3.81592V3.82322ZM8.02436 15.3146C5.74515 16.0369 3.29178 14.8476 2.54214 12.6515C1.7925 10.4554 3.02675 8.09144 5.30596 7.36913C5.30596 7.36913 3.0419 9.82792 4.60933 11.9949C4.60933 11.9949 4.40488 10.594 5.71486 9.93736C5.71486 9.93736 4.2913 14.1034 8.30453 15.227L8.03193 15.3146H8.02436Z" fill="url(#paint0_linear_166_10363)"/>
<defs>
<linearGradient id="paint0_linear_166_10363" x1="-105.864" y1="8.501" x2="70.8246" y2="8.501" gradientUnits="userSpaceOnUse">
<stop stop-color="#FF57C1"/>
<stop offset="1" stop-color="#BC30E3"/>
</linearGradient>
</defs>
</svg>
