<svg width="12" height="11" viewBox="0 0 12 11" fill="none" xmlns="http://www.w3.org/2000/svg">
<path d="M5.37207 3.14014C5.37207 2.77854 5.65754 2.51211 6.0001 2.51211C6.34266 2.51211 6.62813 2.77854 6.62813 3.14014C6.62813 3.50173 6.34266 3.76816 6.0001 3.76816C5.65754 3.76816 5.37207 3.50173 5.37207 3.14014ZM5.44819 8.50692V4.45328H6.53297V8.50692H5.44819Z" fill="white"/>
<path d="M6.0001 9.9C8.43015 9.9 10.4001 7.93005 10.4001 5.5C10.4001 3.06995 8.43015 1.1 6.0001 1.1C3.57004 1.1 1.6001 3.06995 1.6001 5.5C1.6001 7.93005 3.57004 9.9 6.0001 9.9Z" stroke="white" stroke-miterlimit="10"/>
</svg>
