<svg width="26" height="20" viewBox="0 0 26 20" fill="none" xmlns="http://www.w3.org/2000/svg">
<rect y="4" width="26" height="12" rx="3" fill="url(#paint0_linear_207_37811)"/>
<path d="M5.78456 11.328V10.192H6.83256C7.03523 10.192 7.20856 10.152 7.35256 10.072C7.5019 9.992 7.61656 9.88 7.69656 9.736C7.77656 9.58667 7.81656 9.416 7.81656 9.224C7.81656 9.02133 7.77656 8.848 7.69656 8.704C7.61656 8.55467 7.5019 8.44267 7.35256 8.368C7.20856 8.288 7.03523 8.248 6.83256 8.248H5.78456V7.112H6.76856C7.26456 7.112 7.68856 7.19467 8.04056 7.36C8.3979 7.52533 8.6699 7.76 8.85656 8.064C9.04856 8.368 9.14456 8.73333 9.14456 9.16V9.288C9.14456 9.704 9.04856 10.0667 8.85656 10.376C8.6699 10.68 8.3979 10.9147 8.04056 11.08C7.68856 11.2453 7.26456 11.328 6.76856 11.328H5.78456ZM4.63256 13V7.112H5.94456V13H4.63256ZM9.9685 13V7.112H11.2805V13H9.9685ZM13.5125 13L11.8005 10.488H13.2405L15.0325 13H13.5125ZM10.9285 11.128V10.096H12.3685C12.5605 10.096 12.7258 10.0587 12.8645 9.984C13.0085 9.904 13.1178 9.79467 13.1925 9.656C13.2725 9.512 13.3125 9.34667 13.3125 9.16C13.3125 8.97333 13.2725 8.81067 13.1925 8.672C13.1178 8.528 13.0085 8.41867 12.8645 8.344C12.7258 8.264 12.5605 8.224 12.3685 8.224H10.9285V7.112H12.2645C12.7498 7.112 13.1712 7.18667 13.5285 7.336C13.8858 7.48 14.1605 7.696 14.3525 7.984C14.5445 8.272 14.6405 8.63467 14.6405 9.072V9.2C14.6405 9.632 14.5418 9.992 14.3445 10.28C14.1525 10.5627 13.8778 10.776 13.5205 10.92C13.1685 11.0587 12.7498 11.128 12.2645 11.128H10.9285ZM18.5419 13.152C18.0139 13.152 17.5526 13.0613 17.1579 12.88C16.7686 12.6933 16.4459 12.4507 16.1899 12.152C15.9339 11.848 15.7419 11.52 15.6139 11.168C15.4913 10.816 15.4299 10.4773 15.4299 10.152V9.976C15.4299 9.61333 15.4939 9.256 15.6219 8.904C15.7553 8.54667 15.9526 8.224 16.2139 7.936C16.4753 7.648 16.8006 7.41867 17.1899 7.248C17.5793 7.072 18.0299 6.984 18.5419 6.984C19.0539 6.984 19.5046 7.072 19.8939 7.248C20.2833 7.41867 20.6086 7.648 20.8699 7.936C21.1313 8.224 21.3286 8.54667 21.4619 8.904C21.5953 9.256 21.6619 9.61333 21.6619 9.976V10.152C21.6619 10.4773 21.5979 10.816 21.4699 11.168C21.3419 11.52 21.1499 11.848 20.8939 12.152C20.6379 12.4507 20.3126 12.6933 19.9179 12.88C19.5286 13.0613 19.0699 13.152 18.5419 13.152ZM18.5419 11.928C18.8193 11.928 19.0673 11.88 19.2859 11.784C19.5099 11.688 19.6993 11.5547 19.8539 11.384C20.0139 11.2133 20.1339 11.016 20.2139 10.792C20.2939 10.568 20.3339 10.328 20.3339 10.072C20.3339 9.8 20.2913 9.552 20.2059 9.328C20.1259 9.09867 20.0059 8.90133 19.8459 8.736C19.6913 8.56533 19.5046 8.43467 19.2859 8.344C19.0673 8.25333 18.8193 8.208 18.5419 8.208C18.2646 8.208 18.0166 8.25333 17.7979 8.344C17.5793 8.43467 17.3899 8.56533 17.2299 8.736C17.0753 8.90133 16.9579 9.09867 16.8779 9.328C16.7979 9.552 16.7579 9.8 16.7579 10.072C16.7579 10.328 16.7979 10.568 16.8779 10.792C16.9579 11.016 17.0753 11.2133 17.2299 11.384C17.3899 11.5547 17.5793 11.688 17.7979 11.784C18.0166 11.88 18.2646 11.928 18.5419 11.928Z" fill="white"/>
<defs>
<linearGradient id="paint0_linear_207_37811" x1="0" y1="10.0007" x2="26" y2="10.0007" gradientUnits="userSpaceOnUse">
<stop stop-color="#FF57C1"/>
<stop offset="1" stop-color="#BC30E3"/>
</linearGradient>
</defs>
</svg>
