<svg width="12" height="12" viewBox="0 0 12 12" fill="none" xmlns="http://www.w3.org/2000/svg">
<g id="&#240;&#159;&#166;&#134; icon &#34;cog&#34;">
<g id="&#240;&#159;&#166;&#134; icon &#34;reload&#34;">
<path id="Vector" d="M5.52252 0C2.48514 0 0 2.48514 0 5.52252C0 8.55991 2.48514 11.045 5.52252 11.045C7.04122 11.045 8.44946 10.4514 9.44352 9.44352L8.44946 8.44946C7.70392 9.195 6.66845 9.66442 5.50872 9.66442C3.21687 9.66442 1.36682 7.81437 1.36682 5.52252C1.36682 3.23068 3.21687 1.38063 5.50872 1.38063C6.65464 1.38063 7.6487 1.87766 8.39424 2.63701L6.88935 4.14189H11.0312V0L9.38829 1.64295C8.39424 0.648897 7.02741 0 5.50872 0H5.52252Z" fill="#26A9F1"/>
</g>
</g>
</svg>
