<svg width="14" height="15" viewBox="0 0 14 15" fill="none" xmlns="http://www.w3.org/2000/svg">
<path id="Vector" d="M7.24732 12.0713C7.09671 11.9879 6.91375 11.9878 6.76306 12.0711L3.27096 14.0018C2.90567 14.2037 2.46836 13.8956 2.53556 13.4837L3.21459 9.32121C3.24016 9.16446 3.18975 9.0049 3.07877 8.8913L0.180865 5.92508C-0.103698 5.63381 0.0606278 5.14272 0.463184 5.08138L4.41837 4.47861C4.58328 4.45348 4.72479 4.34776 4.79567 4.19675L6.54737 0.464411C6.72732 0.080988 7.27268 0.0809879 7.45263 0.464411L9.20433 4.19675C9.27521 4.34776 9.41672 4.45348 9.58163 4.47861L13.5368 5.08138C13.9394 5.14272 14.1037 5.63381 13.8191 5.92508L10.9212 8.8913C10.8103 9.0049 10.7598 9.16446 10.7854 9.32121L11.4642 13.4824C11.5315 13.8946 11.0937 14.2027 10.7284 14.0003L7.24732 12.0713Z" fill="white"/>
</svg>
