<svg width="19" height="18" viewBox="0 0 19 18" fill="none" xmlns="http://www.w3.org/2000/svg">
<g id="Social Icons" clip-path="url(#clip0_97_15138)">
<path id="Vector" d="M18.4203 5.39985C18.4203 5.39985 18.2445 4.15884 17.7031 3.61392C17.0176 2.89673 16.2512 2.89321 15.8996 2.85103C13.3824 2.66821 9.60313 2.66821 9.60313 2.66821H9.59609C9.59609 2.66821 5.8168 2.66821 3.29961 2.85103C2.94805 2.89321 2.18164 2.89673 1.49609 3.61392C0.954688 4.15884 0.782422 5.39985 0.782422 5.39985C0.782422 5.39985 0.599609 6.85884 0.599609 8.31431V9.67837C0.599609 11.1338 0.778906 12.5928 0.778906 12.5928C0.778906 12.5928 0.954687 13.8338 1.49258 14.3788C2.17812 15.0959 3.07813 15.0713 3.47891 15.1487C4.92031 15.2858 9.59961 15.328 9.59961 15.328C9.59961 15.328 13.3824 15.3209 15.8996 15.1417C16.2512 15.0995 17.0176 15.0959 17.7031 14.3788C18.2445 13.8338 18.4203 12.5928 18.4203 12.5928C18.4203 12.5928 18.5996 11.1374 18.5996 9.67837V8.31431C18.5996 6.85884 18.4203 5.39985 18.4203 5.39985ZM7.73984 11.3342V6.27524L12.602 8.81353L7.73984 11.3342Z" fill="#969A9C"/>
</g>
<defs>
<clipPath id="clip0_97_15138">
<rect width="18" height="18" fill="white" transform="translate(0.599609)"/>
</clipPath>
</defs>
</svg>
